<?xml version="1.0" encoding="UTF-8" standalone="no"?>
<!-- Created with Inkscape (http://www.inkscape.org/) -->

<svg
   xmlns:dc="http://purl.org/dc/elements/1.1/"
   xmlns:cc="http://creativecommons.org/ns#"
   xmlns:rdf="http://www.w3.org/1999/02/22-rdf-syntax-ns#"
   xmlns:svg="http://www.w3.org/2000/svg"
   xmlns="http://www.w3.org/2000/svg"
   xmlns:sodipodi="http://sodipodi.sourceforge.net/DTD/sodipodi-0.dtd"
   xmlns:inkscape="http://www.inkscape.org/namespaces/inkscape"
   version="1.1"
   id="svg834"
   xml:space="preserve"
   width="1352.5322"
   height="1159.4707"
   viewBox="0 0 1352.5322 1159.4707"
   sodipodi:docname="bg.svg"
   inkscape:version="0.92.5 (2060ec1f9f, 2020-04-08)"><metadata
     id="metadata840"><rdf:RDF><cc:Work
         rdf:about=""><dc:format>image/svg+xml</dc:format><dc:type
           rdf:resource="http://purl.org/dc/dcmitype/StillImage" /><dc:title></dc:title></cc:Work></rdf:RDF></metadata><defs
     id="defs838" /><sodipodi:namedview
     pagecolor="#f9ecba"
     bordercolor="#666666"
     borderopacity="1"
     objecttolerance="10"
     gridtolerance="10"
     guidetolerance="10"
     inkscape:pageopacity="1"
     inkscape:pageshadow="2"
     inkscape:window-width="1848"
     inkscape:window-height="1016"
     id="namedview836"
     showgrid="false"
     fit-margin-top="0"
     fit-margin-left="0"
     fit-margin-right="0"
     fit-margin-bottom="0"
     inkscape:zoom="0.29975"
     inkscape:cx="647.13604"
     inkscape:cy="215.36019"
     inkscape:window-x="1992"
     inkscape:window-y="27"
     inkscape:window-maximized="1"
     inkscape:current-layer="g842" /><g
     id="g842"
     inkscape:groupmode="layer"
     inkscape:label="ink_ext_XXXXXX"
     transform="matrix(1.3333333,0,0,-1.3333333,119.66342,886.99499)"><g
       id="g844"
       transform="matrix(0.1,0,0,0.1,15.012511,65.054214)"><path
         d="M 7500.04,4999.99 H 0 V 0 h 7500.04 v 4999.99"
         style="fill:#f9ecba;fill-opacity:1;fill-rule:nonzero;stroke:none"
         id="path846"
         inkscape:connector-curvature="0" /><path
         d="m 4677.34,-643.809 -737.5,-1642.101 -2006.4,325.9 -297.5,1752.998 c 227.5,169.2034 293.9,480.703 297.5,764.102 3.6,283.5 -37.7,573.9 42.3,845.8 75.2,255.8 256.6,474.8 483.7,614.3 227.1,139.4 497.3,201.9 763.8,197.4 335.5,-5.6 676,-121.3 915.9,-355.8 180.5,-176.5 295.4,-408.2 396.3,-639.6 129,-295.499 241.7,-601.702 283.4,-921.401 41.8,-319.8007 8.5,-656.199 -141.5,-941.598 z m 76.2,2262.999 c -149.1,230.4 -339.5,440.1 -579.8,572.5 -262.5,144.5 -570.4,189.1 -869.8,178.2 -366.7,-13.5 -734.9,-109.4 -1042.1,-310.2 -307.2,-200.7 -548.8,-511.1 -632.3,-868.4 -67.4,-288.7 -31.4,-590.001 -38.4,-886.302 -2.5,-102.199 -11.5,-206.9997 -31.1,-308.79659 -37.3,-193.20341 -112.8,-375.50041 -254.4,-508.50041 0,0 389,-1654.701 449.4,-1772.401 60.3,-117.6 2108.9,-409.4 2108.9,-409.4 l 1179.5,664.5 -258.9,1237.501 c 233.3,186.597 338.5,487 370,788.30041 5.3,49.09769 8.5,98.09769 10,146.69959 16.2,518.398 -129.3,1040.799 -411,1476.299"
         style="fill:#f14c1c;fill-opacity:1;fill-rule:nonzero;stroke:none"
         id="path848"
         inkscape:connector-curvature="0" /><path
         d="m 4596.44,-259.309 -695.6,-1709.101 -1689,231.7 -428.2,1504.8 156.5,218.4998 c 118.3,200.3012 199.9,422.1992 239.4,651.3982 29.9,173.203 36,349.801 64.5,523.302 28.5,173.5 82.1,348.1 193.7,484 168.8,205.5 445.3,292 710.5,313 208.3,16.5 425.8,-2.9 609.9,-101.8 178.6,-96 311.9,-258.9 421,-429.9 316.9,-496.801 465.9,-1098.699 417.3,-1685.899 z m 222.4,557.098 c -41.7,319.699 -154.4,625.902 -283.4,921.401 -100.9,231.4 -215.8,463.1 -396.3,639.6 -239.9,234.5 -580.4,350.2 -915.9,355.8 -266.5,4.5 -536.7,-58 -763.8,-197.4 -227.1,-139.5 -408.5,-358.5 -483.7,-614.3 -80,-271.9 -38.7,-562.3 -42.3,-845.8 -3.6,-283.399 -70,-594.8986 -297.5,-764.102 l 297.5,-1752.998 2006.4,-325.9 737.5,1642.101 c 150,285.399 183.3,621.7973 141.5,941.598"
         style="fill:#39b0e5;fill-opacity:1;fill-rule:nonzero;stroke:none"
         id="path850"
         inkscape:connector-curvature="0" /><path
         d="m 3958.04,-450.91 c -107.6,-215.102 -261.6,-402.801 -414.4,-588.5 -0.7,-0.9 -1.5,-1.8 -2.3,-2.8 -125.4,-152.4 -340.6,-195.8 -515.5,-104.2 l -324.1,169.699 c -229.1,120 -293.5,414.602 -141,623.5 106,145.199 174.1,318.1016 189,497.402 22.7,273.5 -67.4,561 30.9,817.297 76.2,198.902 268.5,348.302 480.1,373.102 220.8,25.9 444.7,-79.5 593.3,-244.8 148.6,-165.399 228.1,-383.899 258.4,-604.099 43.8,-318.3 -10.8,-649.3 -154.4,-936.601 z m 303.2,1245.398 c -108.3,286.502 -341.5,534.002 -637.1,614.202 -205.6,55.8 -432.7,27.3 -618.1,-77.7 -185.4,-104.9 -326.7,-285 -384.7,-489.9 -58.1,-205.399 -34.2,-425.399 -76.2,-634.699 -33.4,-166.4027 -110.7,-323 -219.3,-453.301 -182.8,-219.5 -236.9,-518.899 -147.4,-790.2 52.2,-158.2 149,-293.2 274.2,-392.3 125.2,-99.1 278.9,-162.3 444.8,-176.8 l 164.3,-14.3 c 359.2,-31.4 697.7,171.6 839.2,503.2 163.8,383.599 356.9,851.701 393.2,1007.001 69.6,298.297 75.3,618.297 -32.9,904.797"
         style="fill:#fccb24;fill-opacity:1;fill-rule:nonzero;stroke:none"
         id="path852"
         inkscape:connector-curvature="0" /><path
         d="m 4458.94,-145.91 -635,-1667.3 -1540.1,176.2 c 0,0 -401.6,1291.498 -404.9,1311.1 -3.4,19.601 145.8,215.699 145.8,215.699 205.1,192.6016 349.6,448.902 408.3,724.102 42.2,198.097 42.2,408.899 130.8,590.999 122.5,251.7 405.2,404 685.1,409.4 279.9,5.3 551.6,-121.1 760.6,-307.3 397.8,-354.299 577.7,-935.799 449.4,-1452.9 z m -279.8,1572.5 c -109.1,171 -242.4,333.9 -421,429.9 -184.1,98.9 -401.6,118.3 -609.9,101.8 -265.2,-21 -541.7,-107.5 -710.5,-313 -111.6,-135.9 -165.2,-310.5 -193.7,-484 -28.5,-173.501 -34.6,-350.099 -64.5,-523.302 -39.5,-229.199 -121.1,-451.097 -239.4,-651.3982 l -156.5,-218.4998 428.2,-1504.8 1689,-231.7 695.6,1709.101 c 48.6,587.2 -100.4,1189.098 -417.3,1685.899"
         style="fill:#26448e;fill-opacity:1;fill-rule:nonzero;stroke:none"
         id="path854"
         inkscape:connector-curvature="0" /><path
         d="m 4294.14,-110.309 c -36.3,-155.3 -229.4,-623.402 -393.2,-1007.001 -141.5,-331.6 -480,-534.6 -839.2,-503.2 l -164.3,14.3 c -165.9,14.5 -319.6,77.7 -444.8,176.8 -125.2,99.1 -222,234.1 -274.2,392.3 -89.5,271.301 -35.4,570.7 147.4,790.2 108.6,130.301 185.9,286.8983 219.3,453.301 42,209.3 18.1,429.3 76.2,634.699 58,204.9 199.3,385 384.7,489.9 185.4,105 412.5,133.5 618.1,77.7 295.6,-80.2 528.8,-327.7 637.1,-614.202 108.2,-286.5 102.5,-606.5 32.9,-904.797 z m -284.6,1417.299 c -209,186.2 -480.7,312.6 -760.6,307.3 -279.9,-5.4 -562.6,-157.7 -685.1,-409.4 -88.6,-182.1 -88.6,-392.902 -130.8,-590.999 -58.7,-275.2 -203.2,-531.5004 -408.3,-724.102 0,0 -149.2,-196.098 -145.8,-215.699 3.3,-19.602 404.9,-1311.1 404.9,-1311.1 l 1540.1,-176.2 635,1667.3 c 128.3,517.101 -51.6,1098.601 -449.4,1452.9"
         style="fill:#f9ecba;fill-opacity:1;fill-rule:nonzero;stroke:none"
         id="path856"
         inkscape:connector-curvature="0" /><path
         d="m 3803.54,-172.91 c -32.6,-103 -76.9,-203.199 -144.8,-286.899 -62.7,-77.203 -147.5,-139.3 -242.9,-164.8 -17.1,-4.602 -34.5,-8 -52.1,-10 -216.2,-30.301 -394.6,165 -347.2,378.199 8.2,37.101 14.6,74.601 19.3,112.199 26,211.9024 -0.5,427 -43.2,636.199 -37.4,183.403 -83.1,390.102 21.9,545.102 84,124.1 251.9,176.2 398.1,143.5 146.2,-32.7 268.9,-139.4 344.5,-268.801 84,-143.699 115,-313.398 123.6,-478.801 10.7,-204.797 -15.2,-410.3982 -77.2,-605.898 z m 308.9,658.601 c -30.3,220.2 -109.8,438.7 -258.4,604.099 -148.6,165.3 -372.5,270.7 -593.3,244.8 -211.6,-24.8 -403.9,-174.2 -480.1,-373.102 -98.3,-256.297 -8.2,-543.797 -30.9,-817.297 -14.9,-179.3004 -83,-352.203 -189,-497.402 -152.5,-208.898 -88.1,-503.5 141,-623.5 l 324.1,-169.699 c 174.9,-91.6 390.1,-48.2 515.5,104.2 0.8,1 1.6,1.9 2.3,2.8 152.8,185.699 306.8,373.398 414.4,588.5 143.6,287.301 198.2,618.301 154.4,936.601"
         style="fill:#f14c1c;fill-opacity:1;fill-rule:nonzero;stroke:none"
         id="path858"
         inkscape:connector-curvature="0" /><path
         d="m 3525.74,-257.109 c -26.6,-30.5 -57.1,-59.5 -95.3,-73.2 -38.1,-13.601 -85.4,-8.402 -112.3,21.899 -19.2,21.601 -25.1,51.601 -30.1,80.101 -49,282.3988 -73,569.2 -71.6,855.797 0.9,166.903 150.1,332.703 317.7,208.703 68.4,-50.703 106.1,-132.601 132.3,-213.703 2.8,-8.699 5.6,-17.398 8.1,-26.199 85.5,-289.801 49.7,-626.4999 -148.8,-853.398"
         style="fill:#fccb24;fill-opacity:1;fill-rule:nonzero;stroke:none"
         id="path860"
         inkscape:connector-curvature="0" /><path
         d="m 6874.04,-1002.51 c -16.8,-24.9 -26.4,-53.9 -27.9,-83.8 l -13.9,-268.4 c -4.6,-88.3 -77.5,-157.5 -165.9,-157.5 h -1143.4 c -96.5,0 -172.7,81.9 -165.6,178.2 l 32.9,451.701 c 16.8,229.899 53,458.297 114,680.598 181.8,663.402 38,1413.301 -390,1953.901 -65.8,83.2 -138.1,162.1 -191.5,253.8 -53.5,91.6 -87.3,199.8 -67.5,304.1 34.3,180.8 216,296.2 393.3,345.8 356.2,99.7 759.2,13 1043,-224.2 162.7,-136 284.3,-314.3 392.8,-496.5 268.7,-451.7 471.6,-950.901 523.9,-1473.901 50.7,-508.0976 -49.6,-1040.801 -334.2,-1463.799 z m 537,1209.299 c -12,369.402 -94.8,733.699 -212.2,1084.101 -152,453.7 -369.8,897.6 -716.6,1227.3 -346.8,329.8 -839.6,531 -1309.8,441.7 -200.3,-38.1 -396.1,-131.6 -523.8,-290.6 -127.7,-159 -175.5,-389 -88.9,-573.6 53.4,-113.6 149.6,-200 236.2,-290.8 453.5,-475.3 675.1,-1156.699 610.5,-1808.69859 -9.6,-97.00041 -25.5,-193.40241 -48,-288.30041 -33.5,-141.5 -57.5,-285.102 -73.2,-429.7 l -93.6,-856.801 1864.7,-112.8 78.5,436.9 c 36.3,201.8 88.4,400.498 154.8,594.498 72,210.703 110.2,432.903 120.2,656.20341 3.1,70.19919 3.5,140.49959 1.2,210.59759"
         style="fill:#26448e;fill-opacity:1;fill-rule:nonzero;stroke:none"
         id="path862"
         inkscape:connector-curvature="0" /><path
         d="m 6719.94,-91.4102 c -36.6,-206.6018 -95.3,-413.4998 -211.9,-587.9998 -46.6,-69.699 -104.8,-141.399 -118.7,-226.602 -9.3,-57.398 8.7,-105.798 27,-155.098 12.7,-34.4 25.6,-69.2 29.4,-107.8 5.8,-59 -11.3,-123.6 -57.8,-160.2 -43.9,-34.5 -103.9,-38 -159.7,-38.7 -165.3,-1.9 -330.8,8.5 -494.6,31.2 -28.2,3.9 -57.2,8.4 -81.3,23.5 -55.2,34.6 -65.6,109.5 -67,174.5 -11.8,559.399 234.7,1106.0983 184.9,1663.301 -30.8,345 -173.4,669.099 -323,981.399 -58.6,122.4 -119.2,246.3 -141.8,380 -22.5,133.8 -1.7,281.7 87.4,384.1 119.8,137.7 336.7,157.3 505,86.8 168.4,-70.6 295.7,-213.3 400.1,-363 416.2,-597 548.8,-1368.799 422,-2085.4002 z m 488.3,552.6992 c -52.3,523 -255.2,1022.201 -523.9,1473.901 -108.5,182.2 -230.1,360.5 -392.8,496.5 -283.8,237.2 -686.8,323.9 -1043,224.2 -177.3,-49.6 -359,-165 -393.3,-345.8 -19.8,-104.3 14,-212.5 67.5,-304.1 53.4,-91.7 125.7,-170.6 191.5,-253.8 428,-540.6 571.8,-1290.499 390,-1953.901 -61,-222.301 -97.2,-450.699 -114,-680.598 l -32.9,-451.701 c -7.1,-96.3 69.1,-178.2 165.6,-178.2 h 1143.4 c 88.4,0 161.3,69.2 165.9,157.5 l 13.9,268.4 c 1.5,29.9 11.1,58.9 27.9,83.8 284.6,422.998 384.9,955.7014 334.2,1463.799"
         style="fill:#fccb24;fill-opacity:1;fill-rule:nonzero;stroke:none"
         id="path864"
         inkscape:connector-curvature="0" /><path
         d="m 6252.84,-565.309 c -76.6,-136.5 -127,-286.203 -144.7,-441.701 l -1.1,-9.5 c -11.7,-102.8 -113.4,-170 -212.5,-140.4 -71.1,21.2 -118.6,86.6 -118.6,159.101 0,7 0.4,14.098 1.3,21.2 l 31.2,243.097 c 10.8,84.403 29.9,167.703 59.4,247.602 119.8,324.398 140.1,681.898 99.8,1026.5 -44.5,380.199 -159.7,748.4 -284.1,1110.5 -29.4,85.6 -60,175.1 -28.3,266 14.3,41 43.9,75.9 84,92.4 89.3,36.9 171.7,-31.3 232.2,-97.4 323.8,-354.5 522,-821.5 552,-1300.699 25.4,-407.301 -70.9,-821 -270.6,-1176.7 z m 45.1,2559.299 c -104.4,149.7 -231.7,292.4 -400.1,363 -168.3,70.5 -385.2,50.9 -505,-86.8 -89.1,-102.4 -109.9,-250.3 -87.4,-384.1 22.6,-133.7 83.2,-257.6 141.8,-380 149.6,-312.3 292.2,-636.399 323,-981.399 49.8,-557.2027 -196.7,-1103.902 -184.9,-1663.301 1.4,-65 11.8,-139.9 67,-174.5 24.1,-15.1 53.1,-19.6 81.3,-23.5 163.8,-22.7 329.3,-33.1 494.6,-31.2 55.8,0.7 115.8,4.2 159.7,38.7 46.5,36.6 63.6,101.2 57.8,160.2 -3.8,38.6 -16.7,73.4 -29.4,107.8 -18.3,49.3 -36.3,97.7 -27,155.098 13.9,85.203 72.1,156.903 118.7,226.602 116.6,174.5 175.3,381.398 211.9,587.9998 126.8,716.6012 -5.8,1488.4002 -422,2085.4002"
         style="fill:#f14c1c;fill-opacity:1;fill-rule:nonzero;stroke:none"
         id="path866"
         inkscape:connector-curvature="0" /><path
         d="m 6252.84,-565.309 c -76.6,-136.5 -127,-286.203 -144.7,-441.701 l -1.1,-9.5 c -11.7,-102.8 -113.4,-170 -212.5,-140.4 -71.1,21.2 -118.6,86.6 -118.6,159.101 0,7 0.4,14.098 1.3,21.2 l 31.2,243.097 c 10.8,84.403 29.9,167.703 59.4,247.602 119.8,324.398 140.1,681.898 99.8,1026.5 -44.5,380.199 -159.7,748.4 -284.1,1110.5 -29.4,85.6 -60,175.1 -28.3,266 14.3,41 43.9,75.9 84,92.4 89.3,36.9 171.7,-31.3 232.2,-97.4 323.8,-354.5 522,-821.5 552,-1300.699 25.4,-407.301 -70.9,-821 -270.6,-1176.7"
         style="fill:#39b0e5;fill-opacity:1;fill-rule:nonzero;stroke:none"
         id="path868"
         inkscape:connector-curvature="0" /><path
         d="M 1327.84,620.09 C 1305.14,429.191 1233.24,241.891 1108.24,95.8906 962.035,-74.8086 752.637,-180.012 538.438,-248.109 c -224.903,-71.5 -477.3013,-104.7 -691.501,-5.7 -142.601,65.797 -255,184.7973 -340.601,316.5004 -271.098,417.7966 -294.699,1013.2986 60.902,1389.5986 129.598,137.2 290.098,240.3 453.1995,333.2 132.3005,75.2 272.5975,146.2 424.3005,157.7 201.797,15.4 401.797,-79.7 543.399,-224.2 101.203,-103.4 175.203,-229.8 229.303,-364.6 21.6,-53.7 40,-108.6 55.7,-164 52.4,-185 77.3,-379.402 54.7,-570.3 z m 120.9,639.4 c -18.6,65.6 -40.3,130.7 -65.8,194.2 -64.1,159.7 -151.7,309.3 -271.6,431.8 -167.606,171.1 -404.504,283.7 -643.402,265.5 -166.602,-12.7 -321.5,-85.8 -467.8989375,-167.4 -11.6015625,-6.4 -23.1015625,-12.9 -34.5038625,-19.4 -193.1992,-109.9 -383.0982,-232 -536.6992,-394.5 -421,-445.6 -393.102,-1150.799 -72,-1645.4009 101.199,-155.8981 234.301,-296.8011 403.203,-374.8011 253.6993,-117.097 552.5,-77.898 818.797,6.801 253.703,80.602 501.504,205.199 674.704,407.3008 9.1,10.6993 18,21.5 26.7,32.60161 131.6,167.69959 208.2,376.09759 233.3,588.09759 26.8,226 -2.7,456.301 -64.8,675.201"
         style="fill:#fccb24;fill-opacity:1;fill-rule:nonzero;stroke:none"
         id="path870"
         inkscape:connector-curvature="0" /><path
         d="m 1172.84,649.891 c -19.1,-161.5 -80,-320.102 -185.805,-443.602 C 863.234,61.7891 686.035,-27.3086 504.738,-84.9102 314.336,-145.41 100.734,-173.512 -80.6641,-89.8086 -201.363,-34.0117 -296.465,66.6914 -368.863,178.191 c -229.5,353.598 -249.5,857.699 51.5,1176.099 109.8,116.2 245.5974,203.5 383.6013,282.1 111.9957,63.7 230.7967,123.7 359.1997,133.5 170.699,13 340.097,-67.5 459.898,-189.8 85.699,-87.5 148.304,-194.5 194.104,-308.6 18.3,-45.4 33.8,-92 47.1,-138.8 44.4,-156.6 65.5,-321.202 46.3,-482.799 z m 100.3,540.499 c -15.7,55.4 -34.1,110.3 -55.7,164 -54.1,134.8 -128.1,261.2 -229.303,364.6 -141.602,144.5 -341.602,239.6 -543.399,224.2 -151.703,-11.5 -292,-82.5 -424.3005,-157.7 -163.1015,-92.9 -323.6015,-196 -453.1995,-333.2 -355.601,-376.3 -332,-971.802 -60.902,-1389.5986 85.601,-131.7031 198,-250.7034 340.601,-316.5004 214.1997,-99 466.598,-65.8 691.501,5.7 214.199,68.097 423.597,173.3004 569.802,343.9996 125,146.0004 196.9,333.3004 219.6,524.1994 22.6,190.898 -2.3,385.3 -54.7,570.3"
         style="fill:#26448e;fill-opacity:1;fill-rule:nonzero;stroke:none"
         id="path872"
         inkscape:connector-curvature="0" /><path
         d="M 1077.74,668.289 C 1060.74,524.691 1006.64,383.891 912.539,274.09 802.539,145.691 645.137,66.4883 484.035,15.2891 314.836,-38.5117 125.039,-63.4102 -36.1641,10.9883 -143.363,60.4883 -227.863,149.988 -292.262,249.09 c -203.902,314.199 -221.703,762.1 45.797,1045.1 97.5,103.2 218.2033,180.8 340.9025,250.6 99.5005,56.6 205.0005,110 319.0975,118.7 151.703,11.5 302.199,-60 408.703,-168.7 76.098,-77.7 131.797,-172.8 172.5,-274.2 16.202,-40.4 30.002,-81.7 41.802,-123.4 39.5,-139.1 58.2,-285.299 41.2,-428.901 z m 48.8,464.401 c -13.3,46.8 -28.8,93.4 -47.1,138.8 -45.8,114.1 -108.405,221.1 -194.104,308.6 -119.801,122.3 -289.199,202.8 -459.898,189.8 -128.403,-9.8 -247.204,-69.8 -359.1997,-133.5 -138.0039,-78.6 -273.8013,-165.9 -383.6013,-282.1 -301,-318.4 -281,-822.501 -51.5,-1176.099 72.398,-111.4996 167.5,-212.2027 288.1989,-267.9996 181.3981,-83.7034 395.0001,-55.6014 585.4021,4.8984 181.297,57.6016 358.496,146.6993 482.297,291.1992 105.805,123.5 166.705,282.102 185.805,443.602 19.2,161.597 -1.9,326.199 -46.3,482.799"
         style="fill:#39b0e5;fill-opacity:1;fill-rule:nonzero;stroke:none"
         id="path874"
         inkscape:connector-curvature="0" /><path
         d="M 880.637,706.289 C 868.035,599.988 828.035,495.691 758.438,414.391 c -81.5,-95.102 -198,-153.7 -317.301,-191.602 -125.199,-39.801 -265.801,-58.199 -385.1018,-3.098 -79.3985,36.598 -142,102.899 -189.5982,176.2 -151,232.597 -164.101,564.3 33.8989,773.799 72.2032,76.4 161.5,133.8 252.4021,185.5 73.598,41.9 151.7,81.4 236.2,87.9 112.398,8.5 223.8,-44.4 302.597,-124.9 56.403,-57.6 97.602,-128 127.703,-203 11.996,-29.9 22.2,-60.5 31,-91.4 29.2,-102.899 42.996,-211.2 30.399,-317.501 z m 155.903,390.901 c -11.8,41.7 -25.6,83 -41.802,123.4 -40.703,101.4 -96.402,196.5 -172.5,274.2 -106.504,108.7 -257,180.2 -408.703,168.7 -114.097,-8.7 -219.597,-62.1 -319.0975,-118.7 -122.6992,-69.8 -243.4025,-147.4 -340.9025,-250.6 -267.5,-283 -249.699,-730.901 -45.797,-1045.1 64.399,-99.102 148.899,-188.6017 256.0979,-238.1017 161.2031,-74.3985 351.0001,-49.5 520.1991,4.3008 161.102,51.1992 318.504,130.4019 428.504,258.8009 94.101,109.801 148.201,250.601 165.201,394.199 17,143.602 -1.7,289.801 -41.2,428.901"
         style="fill:#f9ecba;fill-opacity:1;fill-rule:nonzero;stroke:none"
         id="path876"
         inkscape:connector-curvature="0" /><path
         d="m 688.438,743.289 c -8.301,-69.898 -34.602,-138.5 -80.403,-192 -53.597,-62.5 -130.297,-101.098 -208.699,-126 -82.398,-26.199 -174.898,-38.301 -253.398,-2.098 -52.1997,24.098 -93.3989,67.7 -124.6997,116 -99.3008,153 -108.0039,371.2 22.2969,508.999 47.5,50.3 106.2028,88 165.9998,122 48.5,27.6 99.903,53.6 155.403,57.8 73.898,5.7 147.199,-29.2 199.097,-82.1 37.102,-37.9 64.199,-84.2 84,-133.6 7.903,-19.599 14.602,-39.802 20.403,-60.099 19.199,-67.703 28.3,-138.902 20,-208.902 z m 161.8,280.501 c -8.8,30.9 -19.004,61.5 -31,91.4 -30.101,75 -71.3,145.4 -127.703,203 -78.797,80.5 -190.199,133.4 -302.597,124.9 -84.5,-6.5 -162.602,-46 -236.2,-87.9 -90.9021,-51.7 -180.1989,-109.1 -252.4021,-185.5 C -297.664,960.191 -284.563,628.488 -133.563,395.891 -85.9648,322.59 -23.3633,256.289 56.0352,219.691 175.336,164.59 315.938,182.988 441.137,222.789 c 119.301,37.902 235.801,96.5 317.301,191.602 69.597,81.3 109.597,185.597 122.199,291.898 12.597,106.301 -1.199,214.602 -30.399,317.501"
         style="fill:#f14c1c;fill-opacity:1;fill-rule:nonzero;stroke:none"
         id="path878"
         inkscape:connector-curvature="0" /><path
         d="m 688.438,743.289 c -8.301,-69.898 -34.602,-138.5 -80.403,-192 -53.597,-62.5 -130.297,-101.098 -208.699,-126 -82.398,-26.199 -174.898,-38.301 -253.398,-2.098 -52.1997,24.098 -93.3989,67.7 -124.6997,116 -99.3008,153 -108.0039,371.2 22.2969,508.999 47.5,50.3 106.2028,88 165.9998,122 48.5,27.6 99.903,53.6 155.403,57.8 73.898,5.7 147.199,-29.2 199.097,-82.1 37.102,-37.9 64.199,-84.2 84,-133.6 7.903,-19.599 14.602,-39.802 20.403,-60.099 19.199,-67.703 28.3,-138.902 20,-208.902"
         style="fill:#fccb24;fill-opacity:1;fill-rule:nonzero;stroke:none"
         id="path880"
         inkscape:connector-curvature="0" /><path
         d="m 4043.44,2726.39 c -20.9,-11.3 -42.3,-21.3 -64.1,-30.1 -144.7,-58.3 -308.4,-64.1 -465.5,-54.9 -180.9,10.7 -362.1,39.3 -542.4,21.4 -286.8,-28.6 -547.6,-171.9 -821.1,-263.1 -315.7,-105.4 -656.3,-140.5 -986.3,-93.3 -162.4,23.2 -313.403,86.7 -477.806,86.1 -178.898,-0.7 -355.199,-33 -530.996,-62.7 -217.2028,-36.7 -470.199,-28.1 -618,135.1 -75.801,83.7 -111.203,195.5 -141.301,304.3 -68,245.4 -119.8,497.7 -116.8,752.4 3,254.6 63.8,513.2 205.601,724.6 163.399,243.6 420.8987,407.7 684.598,536.1 311.5,151.7 653.203,265 998.804,240.6 349.4,-24.7 674.7,-188.1 965.1,-384 290.4,-195.9 556.5,-426.8 853.6,-612.3 281.6,-175.8 587.4,-308.4 885.7,-454 179.5,-87.6 376.3,-205 414.9,-401 34.9,-177.8 -84.7,-358.9 -244,-445.2 z m 569.8,382.1 c -43.5,221.5 -266,354.2 -468.8,453.2 -337.2,164.6 -682.9,314.5 -1001.1,513.2 -335.9,209.6 -636.7,470.7 -964.9,692.1 -126.7,85.4 -259.2,165.4 -397,233 -219.1,107.6 -451.3,183.9 -693.8,201 -334.503,23.6 -701.339,67.44 -1010.64,-66.66 -37.8984,-16.4 -75.5,-33.5 -112.5977,-51.1 -13.9023,-6.6 -27.7031,-13.2 -41.4023,-19.9 -298,-145.1 -553.363,-464.94 -738.063,-740.24 -160.402,-239 -228.997,-531.3 -232.397,-819.1 -3.4,-287.8 55.198,-573 131.897,-850.4 34.098,-122.9 74.2,-249.2 159.801,-343.8 166.996,-184.6 453,-194.3 698.5003,-152.8 19.0976,3.2 38.1992,6.5 57.3007625,9.7 179.6989375,30.6 360.0979375,60.5 542.8989375,61.1 185.796,0.8 356.5,-71 540.002,-97.3 373,-53.3 758,-13.6 1114.9,105.5 309,103.1 603.8,265.1 928,297.3 203.8,20.3 408.6,-12 613.1,-24 177.6,-10.5 362.5,-3.9 526.1,62 24.7,9.9 48.9,21.2 72.5,34 180.1,97.5 315.2,302.2 275.7,503.2"
         style="fill:#f14c1c;fill-opacity:1;fill-rule:nonzero;stroke:none"
         id="path882"
         inkscape:connector-curvature="0" /><path
         d="m 3660.44,2846.09 c -18.2,-9.9 -36.9,-18.6 -55.9,-26.2 -126.1,-50.8 -268.6,-55.9 -405.5,-47.8 -157.6,9.3 -315.5,34.2 -472.6,18.6 -249.9,-24.9 -477.1,-149.7 -715.3,-229.3 -275.1,-91.8 -571.9,-122.4 -859.3,-81.3 -141.5,20.3 -273.106,75.6 -416.305,75.1 -155.898,-0.6 -309.5,-28.8 -462.699,-54.6 -189.1993,-32 -409.602,-24.5 -538.399,117.7 -66,72.9 -96.898,170.3 -123.101,265.1 -59.199,213.8 -104.301,433.6 -101.699,655.5 2.601,221.8 55.5,447.1 179.097,631.3 142.403,212.2 366.7035,355.2 596.403,467 271.398,132.2 569.101,231 870.203,209.7 304.4,-21.5 587.8,-163.9 840.8,-334.6 253,-170.6 484.9,-371.8 743.8,-533.4 245.3,-153.2 511.7,-268.7 771.6,-395.6 156.4,-76.3 327.9,-178.6 361.4,-349.3 30.5,-154.9 -73.7,-312.7 -212.5,-387.9 z m 627,325.5 c -38.6,196 -235.4,313.4 -414.9,401 -298.3,145.6 -604.1,278.2 -885.7,454 -297.1,185.5 -563.2,416.4 -853.6,612.3 -290.4,195.9 -615.7,359.3 -965.1,384 -345.601,24.4 -687.304,-88.9 -998.804,-240.6 -263.6993,-128.4 -521.199,-292.5 -684.598,-536.1 -141.801,-211.4 -202.601,-470 -205.601,-724.6 -3,-254.7 48.8,-507 116.8,-752.4 30.098,-108.8 65.5,-220.6 141.301,-304.3 147.801,-163.2 400.7972,-171.8 618,-135.1 175.797,29.7 352.098,62 530.996,62.7 164.403,0.6 315.406,-62.9 477.806,-86.1 330,-47.2 670.6,-12.1 986.3,93.3 273.5,91.2 534.3,234.5 821.1,263.1 180.3,17.9 361.5,-10.7 542.4,-21.4 157.1,-9.2 320.8,-3.4 465.5,54.9 21.8,8.8 43.2,18.8 64.1,30.1 159.3,86.3 278.9,267.4 244,445.2"
         style="fill:#26448e;fill-opacity:1;fill-rule:nonzero;stroke:none"
         id="path884"
         inkscape:connector-curvature="0" /><path
         d="m 3178.54,3258.19 c -49.7,-121.8 -191,-164.7 -314.8,-193.1 -679.4,-156 -1363.6,-312.6 -2058.802,-335.8 -268.403,-8.9 -554.102,7.5 -775.6997,166.2 -131.6013,94.3 -231.8013,235.9 -279.4023,395.2 -71.801,239.9 -21.5,509.9 108.5,721.3 129.9999,211.5 333.402,366.8 556.199,461.1 206.602,87.5 434.301,125.6 655.105,93.6 199.9,-29 388.3,-114.1 558.9,-228.5 364.6,-166.4 674.1,-462.1 1053.9,-591.5 123,-41.9 254.3,-66.9 361.9,-142 107.6,-75.1 185.1,-222.1 134.2,-346.5 z m 694.4,-24.2 c -33.5,170.7 -205,273 -361.4,349.3 -259.9,126.9 -526.3,242.4 -771.6,395.6 -258.9,161.6 -490.8,362.8 -743.8,533.4 -253,170.7 -536.4,313.1 -840.8,334.6 -301.102,21.3 -598.805,-77.5 -870.203,-209.7 -229.6995,-111.8 -454,-254.8 -596.403,-467 -123.597,-184.2 -176.496,-409.5 -179.097,-631.3 -2.602,-221.9 42.5,-441.7 101.699,-655.5 26.203,-94.8 57.101,-192.2 123.101,-265.1 128.797,-142.2 349.1997,-149.7 538.399,-117.7 153.199,25.8 306.801,54 462.699,54.6 143.199,0.5 274.805,-54.8 416.305,-75.1 287.4,-41.1 584.2,-10.5 859.3,81.3 238.2,79.6 465.4,204.4 715.3,229.3 157.1,15.6 315,-9.3 472.6,-18.6 136.9,-8.1 279.4,-3 405.5,47.8 19,7.6 37.7,16.3 55.9,26.2 138.8,75.2 243,233 212.5,387.9"
         style="fill:#39b0e5;fill-opacity:1;fill-rule:nonzero;stroke:none"
         id="path886"
         inkscape:connector-curvature="0" /><path
         d="m 2134.44,3193.29 c -44.8,-73.8 -132.6,-107.7 -214.7,-134.3 -431.7,-140.1 -893.2,-216.6 -1341.103,-143.2 -125.801,20.6 -251.098,53.5 -362.699,115.1 -111.602,61.5 -209.19972,153.9 -260.3013,270.8 -32.6992,74.8 -44.9023,156.6 -41.1015,238.3 -6.6993,68.7 -1.6993,138.6 16.1015,204.9 60.39846,224.6 245.5973,402.8 460.8983,490.8 215.301,88 457,94.1 686.605,57 239.8,-38.8 474.7,-125.1 669.1,-270.8 194.5,-145.8 346.3,-353.7 403.3,-589.9 19.3,-79.6 26.4,-168.7 -16.1,-238.7 z m 909.9,411.4 c -107.6,75.1 -238.9,100.1 -361.9,142 -379.8,129.4 -689.3,425.1 -1053.9,591.5 -170.6,114.4 -359,199.5 -558.9,228.5 -220.804,32 -448.503,-6.1 -655.105,-93.6 -222.797,-94.3 -426.1991,-249.6 -556.199,-461.1 -130,-211.4 -180.301,-481.4 -108.5,-721.3 47.601,-159.3 147.801,-300.9 279.4023,-395.2 221.5977,-158.7 507.2967,-175.1 775.6997,-166.2 695.202,23.2 1379.402,179.8 2058.802,335.8 123.8,28.4 265.1,71.3 314.8,193.1 50.9,124.4 -26.6,271.4 -134.2,346.5"
         style="fill:#fccb24;fill-opacity:1;fill-rule:nonzero;stroke:none"
         id="path888"
         inkscape:connector-curvature="0" /><path
         d="m 1599.84,3306.89 c -199.8,-137.4 -456.5,-165.3 -698.203,-145.1 -155.801,13.1 -314.602,46.2 -444.5,133.2 -223,149.5 -306.899,477.3 -66,654 83.301,61.1 185.5,91.2 287.5,107.6 308.398,49.8 634.603,-19.8 895.803,-191.1 46.3,-30.3 92.1,-66.5 128.2,-108.7 39.1,-45.8 66.9,-98.5 71.6,-158.3 9.3,-118.3 -76.6,-224.4 -174.4,-291.6 z m 550.7,125.1 c -57,236.2 -208.8,444.1 -403.3,589.9 -194.4,145.7 -429.3,232 -669.1,270.8 -229.605,37.1 -471.304,31 -686.605,-57 -215.301,-88 -400.49984,-266.2 -460.8983,-490.8 -17.8008,-66.3 -22.8008,-136.2 -16.1015,-204.9 -3.8008,-81.7 8.4023,-163.5 41.1015,-238.3 51.10158,-116.9 148.6993,-209.3 260.3013,-270.8 111.601,-61.6 236.898,-94.5 362.699,-115.1 447.903,-73.4 909.403,3.1 1341.103,143.2 82.1,26.6 169.9,60.5 214.7,134.3 42.5,70 35.4,159.1 16.1,238.7"
         style="fill:#f9ecba;fill-opacity:1;fill-rule:nonzero;stroke:none"
         id="path890"
         inkscape:connector-curvature="0" /><path
         d="m 1201.14,3435.09 c -116.4,-80 -266.003,-96.2 -406.702,-84.4 -90.801,7.6 -183.301,26.8 -259,77.5 -129.903,87.1 -178.801,278.1 -38.403,381 48.5,35.6 108.004,53.2 167.403,62.7 179.699,29 369.702,-11.5 521.902,-111.3 27,-17.7 53.6,-38.8 74.7,-63.4 22.8,-26.6 39,-57.3 41.7,-92.1 5.4,-69 -44.6,-130.8 -101.6,-170 z m 573.1,163.4 c -4.7,59.8 -32.5,112.5 -71.6,158.3 -36.1,42.2 -81.9,78.4 -128.2,108.7 -261.2,171.3 -587.405,240.9 -895.803,191.1 -102,-16.4 -204.199,-46.5 -287.5,-107.6 -240.899,-176.7 -157,-504.5 66,-654 129.898,-87 288.699,-120.1 444.5,-133.2 241.703,-20.2 498.403,7.7 698.203,145.1 97.8,67.2 183.7,173.3 174.4,291.6"
         style="fill:#f14c1c;fill-opacity:1;fill-rule:nonzero;stroke:none"
         id="path892"
         inkscape:connector-curvature="0" /><path
         d="m 1201.14,3435.09 c -116.4,-80 -266.003,-96.2 -406.702,-84.4 -90.801,7.6 -183.301,26.8 -259,77.5 -129.903,87.1 -178.801,278.1 -38.403,381 48.5,35.6 108.004,53.2 167.403,62.7 179.699,29 369.702,-11.5 521.902,-111.3 27,-17.7 53.6,-38.8 74.7,-63.4 22.8,-26.6 39,-57.3 41.7,-92.1 5.4,-69 -44.6,-130.8 -101.6,-170"
         style="fill:#39b0e5;fill-opacity:1;fill-rule:nonzero;stroke:none"
         id="path894"
         inkscape:connector-curvature="0" /><path
         d="m 8683.74,3297.29 c -58.1,-358.3 -190.4,-698.6 -343,-1024.4 -71.4,-152.5 -159.8,-314.5 -310.4,-374.5 -178.2,-71.1 -381,30.7 -512.2,176.6 -131.2,145.9 -214.6,332 -329.3,492.7 -255.9,358.4 -654.8,572.5 -1059.5,709.2 -404.6,136.6 -827.1,207.7 -1230.7,347.5 -525,181.9 -1007.4,476.1 -1484.5,771.1 -91.8,50 -181.6,104.9 -269.1,165.2 -185.3,127.8 -370,303 -393.6,535.6 -24.1,237.4 136,462 335.7,573.4 199.7,111.4 432.1,132.6 657.6,145.9 1015.4,59.6 2040.8,-0.1 3033.2,-235.4 360.7,-85.5 720.2,-195.7 1042.4,-387.1 322.2,-191.5 607,-471.1 759.6,-827 141.9,-331.1 161.9,-710.5 103.8,-1068.8 z m 377.8,829.5 c -3,14.2 -6.4,28.3 -9.9,42.5 -100.3,401.5 -374.3,748.4 -706.1,1012.1 -558.8,444 -1277.2,670.8 -1997.2,761.9 -720,91 -1450,55.5 -2175.7,29.3 -336.1,-12.2 -680.5,-24 -991.7,-146.1 -267.9,-105.2 -517.1,-312.3 -598.3,-586.2 -23.9,-80.7 -23,-161.8 -4.3,-240.3 49,-205.2 219.6,-392.9 386.2,-511.8 215.8,-154 468.3,-253.4 694.7,-392.8 462.4,-284.9 825.7,-740.8 1356,-880.5 376.1,-99.1 787.8,-22.4 1157.2,-142.3 339,-110 600.6,-373.7 796.5,-660.4 195.8,-286.6 339.7,-603.1 531.1,-892.4 0.1,-0.1 0.1,-0.2 0.2,-0.3 72.2,-109 176.6,-226.3 311,-215.5 103.7,8.3 181.7,91.2 245.9,169.6 309.8,378.5 568.3,795.5 766.8,1237.1 200.6,446.2 340.9,942.3 237.6,1416.1"
         style="fill:#26448e;fill-opacity:1;fill-rule:nonzero;stroke:none"
         id="path896"
         inkscape:connector-curvature="0" /><path
         d="m 8442.54,3443.59 c -53,-309.3 -173.8,-603.1 -313,-884.3 -65.2,-131.7 -145.9,-271.6 -283.4,-323.4 -162.7,-61.4 -347.8,26.5 -467.6,152.5 -119.8,126 -195.9,286.6 -300.6,425.3 -233.7,309.5 -597.8,494.3 -967.2,612.3 -369.4,117.9 -755.1,179.3 -1123.6,300.1 -479.2,157 -919.6,411 -1355.1,665.6 -83.9,43.2 -165.8,90.6 -245.7,142.7 -169.2,110.3 -337.8,261.6 -359.3,462.4 -22,205 124.1,398.8 306.4,495 182.3,96.2 394.5,114.5 600.3,126 927,51.5 1863.1,-0.1 2769.1,-203.2 329.2,-73.8 657.4,-168.9 951.5,-334.3 294.2,-165.3 554.2,-406.6 693.5,-713.9 129.6,-285.9 147.7,-613.5 94.7,-922.8 z m 137.4,922.5 c -152.6,355.9 -437.4,635.5 -759.6,827 -322.2,191.4 -681.7,301.6 -1042.4,387.1 -992.4,235.3 -2017.8,295 -3033.2,235.4 -225.5,-13.3 -457.9,-34.5 -657.6,-145.9 -199.7,-111.4 -359.8,-336 -335.7,-573.4 23.6,-232.6 208.3,-407.8 393.6,-535.6 87.5,-60.3 177.3,-115.2 269.1,-165.2 477.1,-295 959.5,-589.2 1484.5,-771.1 403.6,-139.8 826.1,-210.9 1230.7,-347.5 404.7,-136.7 803.6,-350.8 1059.5,-709.2 114.7,-160.7 198.1,-346.8 329.3,-492.7 131.2,-145.9 334,-247.7 512.2,-176.6 150.6,60 239,222 310.4,374.5 152.6,325.8 284.9,666.1 343,1024.4 58.1,358.3 38.1,737.7 -103.8,1068.8"
         style="fill:#39b0e5;fill-opacity:1;fill-rule:nonzero;stroke:none"
         id="path898"
         inkscape:connector-curvature="0" /><path
         d="m 7782.04,3344.09 c -107,-131.4 -258.8,-237.4 -428,-245.2 -197.5,-9.2 -373.4,112.1 -545,210 -616.5,351.9 -1343.6,445.3 -2007.9,695.5 -386,145.3 -751.8,344.7 -1081,593.1 -177.3,133.8 -359.8,402.9 -109.4,573.3 72.5,49.3 159.9,70.5 245.5,89.3 978.9,214.4 2016.7,218.3 2969.8,-91.3 236,-76.6 468.2,-173.3 669.5,-318.3 171.9,-123.9 320.8,-285.8 410.9,-476.6 15.4,-32.6 29.1,-66 40.9,-100.2 107,-310.8 42.3,-674.8 -165.3,-929.6 z m 565.8,1022.3 c -139.3,307.3 -399.3,548.6 -693.5,713.9 -294.1,165.4 -622.3,260.5 -951.5,334.3 -906,203.1 -1842.1,254.7 -2769.1,203.2 -205.8,-11.5 -418,-29.8 -600.3,-126 -182.3,-96.2 -328.4,-290 -306.4,-495 21.5,-200.8 190.1,-352.1 359.3,-462.4 79.9,-52.1 161.8,-99.5 245.7,-142.7 435.5,-254.6 875.9,-508.6 1355.1,-665.6 368.5,-120.8 754.2,-182.2 1123.6,-300.1 369.4,-118 733.5,-302.8 967.2,-612.3 104.7,-138.7 180.8,-299.3 300.6,-425.3 119.8,-126 304.9,-213.9 467.6,-152.5 137.5,51.8 218.2,191.7 283.4,323.4 139.2,281.2 260,575 313,884.3 53,309.3 34.9,636.9 -94.7,922.8"
         style="fill:#fccb24;fill-opacity:1;fill-rule:nonzero;stroke:none"
         id="path900"
         inkscape:connector-curvature="0" /><path
         d="m 7814.64,3965.49 c -10.3,-184.2 -103.1,-368.6 -261.8,-462.7 -117,-69.3 -259.5,-85.5 -394.7,-70.9 -135.2,14.6 -265.5,57.8 -394.5,100.6 -340.7,113.1 -682,225.7 -1030.1,313 -78,19.6 -160.4,40.1 -217.7,96.5 -24.6,24.1 -43.8,55.4 -46.6,89.8 -6.1,74 62.5,132.6 130.4,162.4 131.4,57.7 284.1,60.4 408.2,132.3 99.8,57.8 173.1,159.3 196.7,272.2 27.4,131.9 -5.7,286.4 81.3,389.4 165.7,196.2 569.8,88 767.4,7.6 248.6,-101.2 467.1,-278.8 609.7,-506.9 3,-4.7 5.9,-9.5 8.8,-14.3 92.9,-153.2 152.9,-330.3 142.9,-509 z m -2795.2,362 c -341.4,22.5 -674.2,122.2 -949.5,284.3 -194.5,114.5 -369.2,348.9 -131.1,497.8 92.4,57.8 209.1,85 324.5,103.3 380.2,60.1 774,36.5 1156.4,-14.2 149.1,-19.7 306.1,-47.1 415.3,-130.2 130.5,-99.4 161.5,-265 97,-399 -64.5,-134.1 -212.3,-236.3 -379.7,-290.2 -167.4,-54 -352.9,-63.7 -532.9,-51.8 z m 2927.9,-53.8 c -11.8,34.2 -25.5,67.6 -40.9,100.2 -90.1,190.8 -239,352.7 -410.9,476.6 -201.3,145 -433.5,241.7 -669.5,318.3 -953.1,309.6 -1990.9,305.7 -2969.8,91.3 -85.6,-18.8 -173,-40 -245.5,-89.3 -250.4,-170.4 -67.9,-439.5 109.4,-573.3 329.2,-248.4 695,-447.8 1081,-593.1 664.3,-250.2 1391.4,-343.6 2007.9,-695.5 171.6,-97.9 347.5,-219.2 545,-210 169.2,7.8 321,113.8 428,245.2 207.6,254.8 272.3,618.8 165.3,929.6"
         style="fill:#f14c1c;fill-opacity:1;fill-rule:nonzero;stroke:none"
         id="path902"
         inkscape:connector-curvature="0" /><path
         d="m 5721.64,4692.99 c -51.4,-106.9 -169.3,-188.3 -302.7,-231.4 -133.4,-43 -281.4,-50.8 -424.9,-41.3 -272.2,18 -537.5,97.5 -757.1,226.7 -155,91.3 -294.4,278.2 -104.5,397 73.7,46.1 166.7,67.7 258.7,82.3 303.2,48 617.2,29.1 922,-11.3 119,-15.7 244.2,-37.5 331.2,-103.8 104,-79.2 128.8,-211.3 77.3,-318.2 z m 113.4,375.5 c -109.2,83.1 -266.2,110.5 -415.3,130.2 -382.4,50.7 -776.2,74.3 -1156.4,14.2 -115.4,-18.3 -232.1,-45.5 -324.5,-103.3 -238.1,-148.9 -63.4,-383.3 131.1,-497.8 275.3,-162.1 608.1,-261.8 949.5,-284.3 180,-11.9 365.5,-2.2 532.9,51.8 167.4,53.9 315.2,156.1 379.7,290.2 64.5,134 33.5,299.6 -97,399"
         style="fill:#39b0e5;fill-opacity:1;fill-rule:nonzero;stroke:none"
         id="path904"
         inkscape:connector-curvature="0" /><path
         d="m 5401.54,4748.69 c -31.5,-65.5 -103.8,-115.5 -185.6,-141.8 -81.8,-26.4 -172.5,-31.2 -260.5,-25.4 -167,11.1 -329.7,59.8 -464.3,139 -95.1,56 -180.5,170.6 -64.1,243.4 45.2,28.3 102.3,41.6 158.7,50.5 185.8,29.4 378.4,17.9 565.3,-6.9 72.9,-9.7 149.7,-23 203.1,-63.7 63.8,-48.6 78.9,-129.5 47.4,-195.1 z m 242.8,262.5 c -87,66.3 -212.2,88.1 -331.2,103.8 -304.8,40.4 -618.8,59.3 -922,11.3 -92,-14.6 -185,-36.2 -258.7,-82.3 -189.9,-118.8 -50.5,-305.7 104.5,-397 219.6,-129.2 484.9,-208.7 757.1,-226.7 143.5,-9.5 291.5,-1.7 424.9,41.3 133.4,43.1 251.3,124.5 302.7,231.4 51.5,106.9 26.7,239 -77.3,318.2"
         style="fill:#f9ecba;fill-opacity:1;fill-rule:nonzero;stroke:none"
         id="path906"
         inkscape:connector-curvature="0" /><path
         d="m 5401.54,4748.69 c -31.5,-65.5 -103.8,-115.5 -185.6,-141.8 -81.8,-26.4 -172.5,-31.2 -260.5,-25.4 -167,11.1 -329.7,59.8 -464.3,139 -95.1,56 -180.5,170.6 -64.1,243.4 45.2,28.3 102.3,41.6 158.7,50.5 185.8,29.4 378.4,17.9 565.3,-6.9 72.9,-9.7 149.7,-23 203.1,-63.7 63.8,-48.6 78.9,-129.5 47.4,-195.1"
         style="fill:#f14c1c;fill-opacity:1;fill-rule:nonzero;stroke:none"
         id="path908"
         inkscape:connector-curvature="0" /><path
         d="m 7558.54,4040.99 c -7.6,-135.8 -76,-271.6 -192.9,-340.9 -86.2,-51.1 -191.1,-63 -290.7,-52.2 -99.6,10.7 -195.6,42.5 -290.7,74.1 -250.9,83.3 -502.3,166.2 -758.8,230.6 -57.4,14.4 -118.1,29.5 -160.4,71 -18.1,17.8 -32.2,40.9 -34.3,66.2 -4.5,54.5 46,97.7 96.1,119.6 96.8,42.5 209.2,44.5 300.7,97.5 73.5,42.5 127.5,117.3 144.8,200.5 20.3,97.2 -4.1,211 59.9,286.8 122.1,144.5 419.8,64.9 565.4,5.6 183.1,-74.5 344,-205.4 449.1,-373.4 2.2,-3.5 4.4,-7 6.5,-10.5 68.4,-112.9 112.6,-243.3 105.3,-374.9 z m 113.2,433.5 c -2.9,4.8 -5.8,9.6 -8.8,14.3 -142.6,228.1 -361.1,405.7 -609.7,506.9 -197.6,80.4 -601.7,188.6 -767.4,-7.6 -87,-103 -53.9,-257.5 -81.3,-389.4 -23.6,-112.9 -96.9,-214.4 -196.7,-272.2 -124.1,-71.9 -276.8,-74.6 -408.2,-132.3 -67.9,-29.8 -136.5,-88.4 -130.4,-162.4 2.8,-34.4 22,-65.7 46.6,-89.8 57.3,-56.4 139.7,-76.9 217.7,-96.5 348.1,-87.3 689.4,-199.9 1030.1,-313 129,-42.8 259.3,-86 394.5,-100.6 135.2,-14.6 277.7,1.6 394.7,70.9 158.7,94.1 251.5,278.5 261.8,462.7 10,178.7 -50,355.8 -142.9,509"
         style="fill:#f9ecba;fill-opacity:1;fill-rule:nonzero;stroke:none"
         id="path910"
         inkscape:connector-curvature="0" /><path
         d="m 7279.54,4123.99 c -4.5,-81.3 -45.5,-162.8 -115.6,-204.3 -51.7,-30.6 -114.6,-37.8 -174.3,-31.3 -59.7,6.4 -117.2,25.5 -174.2,44.4 -150.5,49.9 -301.2,99.6 -455,138.2 -34.4,8.7 -70.8,17.7 -96.1,42.6 -10.8,10.7 -19.3,24.5 -20.6,39.7 -2.7,32.7 27.6,58.5 57.6,71.7 58,25.5 125.5,26.7 180.3,58.4 44.1,25.6 76.5,70.4 86.8,120.2 12.2,58.3 -2.5,126.5 35.9,172 73.2,86.6 251.7,38.9 339,3.4 109.8,-44.7 206.2,-123.2 269.2,-223.9 1.4,-2.1 2.6,-4.2 3.9,-6.3 41,-67.7 67.6,-145.9 63.1,-224.8 z m 173.7,291.9 c -2.1,3.5 -4.3,7 -6.5,10.5 -105.1,168 -266,298.9 -449.1,373.4 -145.6,59.3 -443.3,138.9 -565.4,-5.6 -64,-75.8 -39.6,-189.6 -59.9,-286.8 -17.3,-83.2 -71.3,-158 -144.8,-200.5 -91.5,-53 -203.9,-55 -300.7,-97.5 -50.1,-21.9 -100.6,-65.1 -96.1,-119.6 2.1,-25.3 16.2,-48.4 34.3,-66.2 42.3,-41.5 103,-56.6 160.4,-71 256.5,-64.4 507.9,-147.3 758.8,-230.6 95.1,-31.6 191.1,-63.4 290.7,-74.1 99.6,-10.8 204.5,1.1 290.7,52.2 116.9,69.3 185.3,205.1 192.9,340.9 7.3,131.6 -36.9,262 -105.3,374.9"
         style="fill:#39b0e5;fill-opacity:1;fill-rule:nonzero;stroke:none"
         id="path912"
         inkscape:connector-curvature="0" /><path
         d="m 7279.54,4123.99 c -4.5,-81.3 -45.5,-162.8 -115.6,-204.3 -51.7,-30.6 -114.6,-37.8 -174.3,-31.3 -59.7,6.4 -117.2,25.5 -174.2,44.4 -150.5,49.9 -301.2,99.6 -455,138.2 -34.4,8.7 -70.8,17.7 -96.1,42.6 -10.8,10.7 -19.3,24.5 -20.6,39.7 -2.7,32.7 27.6,58.5 57.6,71.7 58,25.5 125.5,26.7 180.3,58.4 44.1,25.6 76.5,70.4 86.8,120.2 12.2,58.3 -2.5,126.5 35.9,172 73.2,86.6 251.7,38.9 339,3.4 109.8,-44.7 206.2,-123.2 269.2,-223.9 1.4,-2.1 2.6,-4.2 3.9,-6.3 41,-67.7 67.6,-145.9 63.1,-224.8"
         style="fill:#fccb24;fill-opacity:1;fill-rule:nonzero;stroke:none"
         id="path914"
         inkscape:connector-curvature="0" /></g></g></svg>